<?xml version="1.0" encoding="UTF-8"?>
<!--Generator: Apple Native CoreSVG 175-->
<!DOCTYPE svg
PUBLIC "-//W3C//DTD SVG 1.1//EN"
       "http://www.w3.org/Graphics/SVG/1.1/DTD/svg11.dtd">
<svg version="1.1" xmlns="http://www.w3.org/2000/svg" xmlns:xlink="http://www.w3.org/1999/xlink" width="21.3257" height="23.0103">
 <g>
  <rect height="23.0103" opacity="0" width="21.3257" x="0" y="0"/>
  <path d="M2.99072 23.0103L18.335 23.0103Q21.3257 23.0103 21.3257 21.0571Q21.3257 19.8608 20.5933 18.5059Q19.8608 17.1509 18.4753 15.9485Q17.0898 14.7461 15.1184 13.9893Q13.147 13.2324 10.6689 13.2324Q8.17871 13.2324 6.20728 13.9893Q4.23584 14.7461 2.85034 15.9485Q1.46484 17.1509 0.732422 18.5059Q0 19.8608 0 21.0571Q0 23.0103 2.99072 23.0103ZM2.41699 21.167Q2.17285 21.167 2.06909 21.0938Q1.96533 21.0205 1.96533 20.8252Q1.96533 20.0806 2.53296 19.0979Q3.10059 18.1152 4.21143 17.1997Q5.32227 16.2842 6.9458 15.6799Q8.56934 15.0757 10.6689 15.0757Q12.7686 15.0757 14.386 15.6799Q16.0034 16.2842 17.1143 17.1997Q18.2251 18.1152 18.7927 19.0979Q19.3604 20.0806 19.3604 20.8252Q19.3604 21.0205 19.2566 21.0938Q19.1528 21.167 18.9209 21.167ZM10.6689 11.7188Q12.1216 11.7188 13.3179 10.9375Q14.5142 10.1562 15.2283 8.8562Q15.9424 7.55615 15.9424 5.98145Q15.9424 4.41895 15.2344 3.15552Q14.5264 1.89209 13.3301 1.14746Q12.1338 0.402832 10.6689 0.402832Q9.21631 0.402832 8.02002 1.15967Q6.82373 1.9165 6.10962 3.18604Q5.39551 4.45557 5.39551 6.00586Q5.39551 7.56836 6.10962 8.86841Q6.82373 10.1685 8.02002 10.9436Q9.21631 11.7188 10.6689 11.7188ZM10.6689 9.87549Q9.77783 9.87549 9.0271 9.35669Q8.27637 8.83789 7.8186 7.95898Q7.36084 7.08008 7.36084 6.00586Q7.36084 4.94385 7.8125 4.09546Q8.26416 3.24707 9.01489 2.74658Q9.76562 2.24609 10.6689 2.24609Q11.5845 2.24609 12.3352 2.73438Q13.0859 3.22266 13.5315 4.07104Q13.9771 4.91943 13.9771 5.98145Q13.9771 7.05566 13.5254 7.94067Q13.0737 8.82568 12.323 9.35059Q11.5723 9.87549 10.6689 9.87549Z" fill="rgba(255,255,255,0.85)"/>
 </g>
</svg>
