<?xml version="1.0" encoding="UTF-8"?>
<!--Generator: Apple Native CoreSVG 175-->
<!DOCTYPE svg
PUBLIC "-//W3C//DTD SVG 1.1//EN"
       "http://www.w3.org/Graphics/SVG/1.1/DTD/svg11.dtd">
<svg version="1.1" xmlns="http://www.w3.org/2000/svg" xmlns:xlink="http://www.w3.org/1999/xlink" width="28.7842" height="22.4731">
 <g>
  <rect height="22.4731" opacity="0" width="28.7842" x="0" y="0"/>
  <path d="M5.78613 6.67725Q6.26221 6.67725 6.5918 6.34155Q6.92139 6.00586 6.92139 5.54199Q6.92139 5.06592 6.5918 4.73633Q6.26221 4.40674 5.78613 4.40674Q5.33447 4.40674 4.99268 4.74243Q4.65088 5.07812 4.65088 5.54199Q4.65088 5.99365 4.99268 6.33545Q5.33447 6.67725 5.78613 6.67725ZM5.78613 10.4126Q6.26221 10.4126 6.5918 10.083Q6.92139 9.75342 6.92139 9.27734Q6.92139 8.80127 6.5918 8.47168Q6.26221 8.14209 5.78613 8.14209Q5.33447 8.14209 4.99268 8.47778Q4.65088 8.81348 4.65088 9.27734Q4.65088 9.74121 4.99268 10.0769Q5.33447 10.4126 5.78613 10.4126ZM5.78613 14.1357Q6.26221 14.1357 6.5918 13.8062Q6.92139 13.4766 6.92139 13.0005Q6.92139 12.5366 6.5918 12.207Q6.26221 11.8774 5.78613 11.8774Q5.32227 11.8774 4.98657 12.207Q4.65088 12.5366 4.65088 13.0005Q4.65088 13.4766 4.98657 13.8062Q5.32227 14.1357 5.78613 14.1357ZM5.78613 18.0542Q6.26221 18.0542 6.5918 17.7185Q6.92139 17.3828 6.92139 16.9189Q6.92139 16.4429 6.5918 16.1072Q6.26221 15.7715 5.78613 15.7715Q5.33447 15.7715 4.99268 16.1133Q4.65088 16.4551 4.65088 16.9189Q4.65088 17.3706 4.99268 17.7124Q5.33447 18.0542 5.78613 18.0542ZM9.47266 6.28662L23.4375 6.28662Q23.7671 6.28662 23.9868 6.06689Q24.2065 5.84717 24.2065 5.54199Q24.2065 5.22461 23.9807 4.99878Q23.7549 4.77295 23.4375 4.77295L9.47266 4.77295Q9.15527 4.77295 8.92944 4.99878Q8.70361 5.22461 8.70361 5.54199Q8.70361 5.84717 8.92334 6.06689Q9.14307 6.28662 9.47266 6.28662ZM9.47266 10.0342L17.2119 10.0342Q17.5293 10.0342 17.749 9.81445Q17.9688 9.59473 17.9688 9.27734Q17.9688 8.95996 17.749 8.73413Q17.5293 8.5083 17.2119 8.5083L9.47266 8.5083Q9.15527 8.5083 8.92944 8.73413Q8.70361 8.95996 8.70361 9.27734Q8.70361 9.59473 8.92944 9.81445Q9.15527 10.0342 9.47266 10.0342ZM9.47266 13.7695L23.4375 13.7695Q23.7671 13.7695 23.9868 13.5498Q24.2065 13.3301 24.2065 13.0005Q24.2065 12.6953 23.9868 12.4756Q23.7671 12.2559 23.4375 12.2559L9.47266 12.2559Q9.14307 12.2559 8.92334 12.4756Q8.70361 12.6953 8.70361 13.0005Q8.70361 13.3301 8.92334 13.5498Q9.14307 13.7695 9.47266 13.7695ZM9.47266 17.6758L17.2119 17.6758Q17.5293 17.6758 17.749 17.45Q17.9688 17.2241 17.9688 16.9189Q17.9688 16.6016 17.749 16.3818Q17.5293 16.1621 17.2119 16.1621L9.47266 16.1621Q9.14307 16.1621 8.92334 16.3818Q8.70361 16.6016 8.70361 16.9189Q8.70361 17.2241 8.92944 17.45Q9.15527 17.6758 9.47266 17.6758ZM3.83301 22.4731L24.9512 22.4731Q26.8799 22.4731 27.832 21.5271Q28.7842 20.5811 28.7842 18.7012L28.7842 3.78418Q28.7842 1.9043 27.832 0.952148Q26.8799 0 24.9512 0L3.83301 0Q1.9165 0 0.958252 0.946045Q0 1.89209 0 3.78418L0 18.7012Q0 20.5811 0.958252 21.5271Q1.9165 22.4731 3.83301 22.4731ZM3.85742 20.5078Q2.94189 20.5078 2.45361 20.0256Q1.96533 19.5435 1.96533 18.5913L1.96533 3.89404Q1.96533 2.94189 2.45361 2.45361Q2.94189 1.96533 3.85742 1.96533L24.9268 1.96533Q25.8301 1.96533 26.3245 2.45361Q26.8188 2.94189 26.8188 3.89404L26.8188 18.5913Q26.8188 19.5435 26.3245 20.0256Q25.8301 20.5078 24.9268 20.5078Z" fill="rgba(255,255,255,0.85)"/>
 </g>
</svg>
