<?xml version="1.0" standalone="no"?><!DOCTYPE svg PUBLIC "-//W3C//DTD SVG 1.1//EN" "http://www.w3.org/Graphics/SVG/1.1/DTD/svg11.dtd"><svg t="1658976327108" class="icon" viewBox="0 0 1024 1024" version="1.1" xmlns="http://www.w3.org/2000/svg" p-id="2905" xmlns:xlink="http://www.w3.org/1999/xlink" width="25" height="25"><defs><style type="text/css">@font-face { font-family: feedback-iconfont; src: url("//at.alicdn.com/t/font_1031158_u69w8yhxdu.woff2?t=1630033759944") format("woff2"), url("//at.alicdn.com/t/font_1031158_u69w8yhxdu.woff?t=1630033759944") format("woff"), url("//at.alicdn.com/t/font_1031158_u69w8yhxdu.ttf?t=1630033759944") format("truetype"); }
</style></defs><path d="M512 1024C229.229714 1024 0 794.770286 0 512 0 229.229714 229.229714 0 512 0 794.770286 0 1024 229.229714 1024 512 1024 794.770286 794.770286 1024 512 1024ZM512 80.847238C273.871238 80.847238 80.847238 273.871238 80.847238 512 80.847238 750.128762 273.871238 943.152762 512 943.152762 750.128762 943.152762 943.152762 750.128762 943.152762 512 943.152762 273.871238 750.128762 80.847238 512 80.847238ZM229.059048 794.940952 404.21181 404.21181 794.940952 229.059048 619.78819 619.78819 229.059048 794.940952ZM444.635429 444.635429 323.364571 700.635429 579.364571 579.364571 444.635429 444.635429Z" p-id="2906"></path></svg>