<?xml version="1.0" encoding="UTF-8"?>
<!--Generator: Apple Native CoreSVG 175-->
<!DOCTYPE svg
PUBLIC "-//W3C//DTD SVG 1.1//EN"
       "http://www.w3.org/Graphics/SVG/1.1/DTD/svg11.dtd">
<svg version="1.1" xmlns="http://www.w3.org/2000/svg" xmlns:xlink="http://www.w3.org/1999/xlink" width="27.6855" height="25.4517">
 <g>
  <rect height="25.4517" opacity="0" width="27.6855" x="0" y="0"/>
  <path d="M4.83398 25.4517Q5.3833 25.4517 6.27441 25.1831Q7.16553 24.9146 8.19702 24.4629Q9.22852 24.0112 10.2356 23.468Q11.2427 22.9248 12.0239 22.3633Q12.1826 22.2534 12.3169 22.2046Q12.4512 22.1558 12.5732 22.1558Q12.6953 22.168 12.8174 22.1741Q12.9395 22.1802 13.0493 22.1802Q15.686 22.1802 17.9443 21.6187Q20.2026 21.0571 22.0032 20.0317Q23.8037 19.0063 25.0732 17.6208Q26.3428 16.2354 27.0142 14.5752Q27.6855 12.915 27.6855 11.0962Q27.6855 8.78906 26.6174 6.7749Q25.5493 4.76074 23.6511 3.24097Q21.7529 1.72119 19.2383 0.860596Q16.7236 0 13.8428 0Q10.9619 0 8.44727 0.860596Q5.93262 1.72119 4.03442 3.24097Q2.13623 4.76074 1.06812 6.7749Q0 8.78906 0 11.0962Q0 13.0493 0.762939 14.8071Q1.52588 16.5649 2.948 18.0237Q4.37012 19.4824 6.32324 20.5322Q6.45752 20.6055 6.50024 20.7336Q6.54297 20.8618 6.46973 20.9961Q6.12793 21.5576 5.66406 22.1558Q5.2002 22.7539 4.76685 23.2605Q4.3335 23.7671 4.10156 24.0723Q3.74756 24.5361 3.93677 24.9939Q4.12598 25.4517 4.83398 25.4517Z" fill="rgba(255,255,255,0.85)"/>
 </g>
</svg>
