<?xml version="1.0" encoding="UTF-8"?>
<!--Generator: Apple Native CoreSVG 175-->
<!DOCTYPE svg
PUBLIC "-//W3C//DTD SVG 1.1//EN"
       "http://www.w3.org/Graphics/SVG/1.1/DTD/svg11.dtd">
<svg version="1.1" xmlns="http://www.w3.org/2000/svg" xmlns:xlink="http://www.w3.org/1999/xlink" width="20.5444" height="22.3511">
 <g>
  <rect height="22.3511" opacity="0" width="20.5444" x="0" y="0"/>
  <path d="M2.0874 22.3511L18.457 22.3511Q19.4336 22.3511 19.989 21.9177Q20.5444 21.4844 20.5444 20.7275Q20.5444 19.5557 19.8303 18.2495Q19.1162 16.9434 17.7795 15.802Q16.4429 14.6606 14.5447 13.9465Q12.6465 13.2324 10.2661 13.2324Q7.89795 13.2324 5.99976 13.9465Q4.10156 14.6606 2.75879 15.802Q1.41602 16.9434 0.708008 18.2495Q0 19.5557 0 20.7275Q0 21.4844 0.55542 21.9177Q1.11084 22.3511 2.0874 22.3511ZM10.2783 11.0474Q11.5845 11.0474 12.6953 10.3333Q13.8062 9.61914 14.4836 8.39844Q15.1611 7.17773 15.1611 5.65186Q15.1611 4.15039 14.4836 2.96021Q13.8062 1.77002 12.6953 1.08643Q11.5845 0.402832 10.2783 0.402832Q8.97217 0.402832 7.86133 1.09863Q6.75049 1.79443 6.073 2.99072Q5.39551 4.18701 5.39551 5.67627Q5.39551 7.18994 6.073 8.40454Q6.75049 9.61914 7.86133 10.3333Q8.97217 11.0474 10.2783 11.0474Z" fill="rgba(255,255,255,0.85)"/>
 </g>
</svg>
