<?xml version="1.0" encoding="UTF-8"?>
<!--Generator: Apple Native CoreSVG 175-->
<!DOCTYPE svg
PUBLIC "-//W3C//DTD SVG 1.1//EN"
       "http://www.w3.org/Graphics/SVG/1.1/DTD/svg11.dtd">
<svg version="1.1" xmlns="http://www.w3.org/2000/svg" xmlns:xlink="http://www.w3.org/1999/xlink" width="28.7842" height="22.4731">
 <g>
  <rect height="22.4731" opacity="0" width="28.7842" x="0" y="0"/>
  <path d="M5.51758 6.55518Q5.05371 6.55518 4.70581 6.20117Q4.35791 5.84717 4.35791 5.3833Q4.35791 4.89502 4.70581 4.55322Q5.05371 4.21143 5.51758 4.21143Q6.01807 4.21143 6.35986 4.54712Q6.70166 4.88281 6.70166 5.3833Q6.70166 5.85938 6.35986 6.20728Q6.01807 6.55518 5.51758 6.55518ZM5.51758 10.4004Q5.05371 10.4004 4.70581 10.0525Q4.35791 9.70459 4.35791 9.22852Q4.35791 8.75244 4.70581 8.40454Q5.05371 8.05664 5.51758 8.05664Q6.01807 8.05664 6.35986 8.39844Q6.70166 8.74023 6.70166 9.22852Q6.70166 9.7168 6.35986 10.0586Q6.01807 10.4004 5.51758 10.4004ZM5.51758 14.2334Q5.0415 14.2334 4.69971 13.8916Q4.35791 13.5498 4.35791 13.0615Q4.35791 12.5977 4.69971 12.2498Q5.0415 11.9019 5.51758 11.9019Q6.01807 11.9019 6.35986 12.2437Q6.70166 12.5854 6.70166 13.0615Q6.70166 13.5498 6.35986 13.8916Q6.01807 14.2334 5.51758 14.2334ZM5.51758 18.2739Q5.05371 18.2739 4.70581 17.926Q4.35791 17.5781 4.35791 17.1021Q4.35791 16.626 4.70581 16.272Q5.05371 15.918 5.51758 15.918Q6.01807 15.918 6.35986 16.2659Q6.70166 16.6138 6.70166 17.1021Q6.70166 17.5903 6.35986 17.9321Q6.01807 18.2739 5.51758 18.2739ZM9.31396 6.15234Q8.98438 6.15234 8.75244 5.92651Q8.52051 5.70068 8.52051 5.3833Q8.52051 5.0415 8.75244 4.80957Q8.98438 4.57764 9.31396 4.57764L23.7061 4.57764Q24.0356 4.57764 24.2676 4.80957Q24.4995 5.0415 24.4995 5.3833Q24.4995 5.70068 24.2737 5.92651Q24.0479 6.15234 23.7061 6.15234ZM9.31396 10.0098Q8.98438 10.0098 8.75244 9.77783Q8.52051 9.5459 8.52051 9.22852Q8.52051 8.89893 8.75244 8.66699Q8.98438 8.43506 9.31396 8.43506L17.2852 8.43506Q17.6025 8.43506 17.8345 8.66699Q18.0664 8.89893 18.0664 9.22852Q18.0664 9.5459 17.8345 9.77783Q17.6025 10.0098 17.2852 10.0098ZM9.31396 13.8672Q8.98438 13.8672 8.75244 13.6353Q8.52051 13.4033 8.52051 13.0615Q8.52051 12.7441 8.75244 12.5183Q8.98438 12.2925 9.31396 12.2925L23.7061 12.2925Q24.0479 12.2925 24.2737 12.5183Q24.4995 12.7441 24.4995 13.0615Q24.4995 13.4033 24.2737 13.6353Q24.0479 13.8672 23.7061 13.8672ZM9.31396 17.8955Q8.98438 17.8955 8.75244 17.6636Q8.52051 17.4316 8.52051 17.1021Q8.52051 16.7725 8.75244 16.5466Q8.98438 16.3208 9.31396 16.3208L17.2852 16.3208Q17.6147 16.3208 17.8406 16.5466Q18.0664 16.7725 18.0664 17.1021Q18.0664 17.4316 17.8345 17.6636Q17.6025 17.8955 17.2852 17.8955ZM3.83301 22.4731L24.9512 22.4731Q26.8799 22.4731 27.832 21.5271Q28.7842 20.5811 28.7842 18.7012L28.7842 3.78418Q28.7842 1.9043 27.832 0.952148Q26.8799 0 24.9512 0L3.83301 0Q1.9165 0 0.958252 0.946045Q0 1.89209 0 3.78418L0 18.7012Q0 20.5811 0.958252 21.5271Q1.9165 22.4731 3.83301 22.4731Z" fill="rgba(255,255,255,0.85)"/>
 </g>
</svg>
