<?xml version="1.0" encoding="UTF-8"?>
<!--Generator: Apple Native CoreSVG 175-->
<!DOCTYPE svg
PUBLIC "-//W3C//DTD SVG 1.1//EN"
       "http://www.w3.org/Graphics/SVG/1.1/DTD/svg11.dtd">
<svg version="1.1" xmlns="http://www.w3.org/2000/svg" xmlns:xlink="http://www.w3.org/1999/xlink" width="27.6855" height="25.5737">
 <g>
  <rect height="25.5737" opacity="0" width="27.6855" x="0" y="0"/>
  <path d="M5.29785 25.5737Q6.11572 25.5737 7.40967 25.0854Q8.70361 24.5972 10.1318 23.8159Q11.5601 23.0347 12.793 22.1436Q15.3442 22.2168 17.6025 21.7041Q19.8608 21.1914 21.7102 20.1965Q23.5596 19.2017 24.8962 17.8101Q26.2329 16.4185 26.9592 14.7156Q27.6855 13.0127 27.6855 11.0962Q27.6855 8.78906 26.6174 6.7749Q25.5493 4.76074 23.6511 3.24097Q21.7529 1.72119 19.2383 0.860596Q16.7236 0 13.8428 0Q10.9619 0 8.44727 0.860596Q5.93262 1.72119 4.03442 3.24097Q2.13623 4.76074 1.06812 6.7749Q0 8.78906 0 11.0962Q0 13.0981 0.799561 14.8926Q1.59912 16.687 3.04565 18.1152Q4.49219 19.5435 6.4209 20.4346Q6.14014 20.9717 5.74951 21.582Q5.35889 22.1924 4.96826 22.7478Q4.57764 23.3032 4.29688 23.6572Q3.97949 24.0845 3.9917 24.53Q4.00391 24.9756 4.3335 25.2747Q4.66309 25.5737 5.29785 25.5737ZM6.57959 23.5474Q6.50635 23.5718 6.48193 23.5291Q6.45752 23.4863 6.50635 23.4253Q7.01904 22.7905 7.6416 21.9543Q8.26416 21.1182 8.58154 20.5322Q8.83789 20.0562 8.74023 19.6533Q8.64258 19.2505 8.05664 18.9697Q6.14014 18.0786 4.79126 16.864Q3.44238 15.6494 2.73438 14.1846Q2.02637 12.7197 2.02637 11.0962Q2.02637 9.21631 2.93579 7.57446Q3.84521 5.93262 5.46265 4.6814Q7.08008 3.43018 9.22852 2.72217Q11.377 2.01416 13.8428 2.01416Q16.3086 2.01416 18.457 2.72217Q20.6055 3.43018 22.2229 4.6814Q23.8403 5.93262 24.7559 7.57446Q25.6714 9.21631 25.6714 11.0962Q25.6714 12.9639 24.7559 14.6118Q23.8403 16.2598 22.2229 17.5049Q20.6055 18.75 18.457 19.458Q16.3086 20.166 13.8428 20.166Q13.6597 20.166 13.3789 20.1599Q13.0981 20.1538 12.7319 20.1416Q12.3535 20.1416 12.03 20.2698Q11.7065 20.3979 11.3647 20.6665Q10.6201 21.2036 9.7168 21.7834Q8.81348 22.3633 7.97119 22.8394Q7.12891 23.3154 6.57959 23.5474Z" fill="rgba(255,255,255,0.85)"/>
 </g>
</svg>
